<svg xmlns="http://www.w3.org/2000/svg"><symbol id="icon-basket" viewBox="0 0 24 24"><path d="M2.5 4.25C2.5 4.05109 2.57902 3.86032 2.71967 3.71967C2.86032 3.57902 3.05109 3.5 3.25 3.5H3.808C4.758 3.5 5.328 4.139 5.653 4.733C5.87 5.129 6.027 5.588 6.15 6.004C6.18327 6.00137 6.21663 6.00004 6.25 6H18.748C19.578 6 20.178 6.794 19.95 7.593L18.122 14.002C17.9581 14.5769 17.6114 15.0827 17.1343 15.4428C16.6572 15.803 16.0758 15.9979 15.478 15.998H9.53C8.92749 15.998 8.34165 15.8002 7.86252 15.4349C7.3834 15.0696 7.0375 14.557 6.878 13.976L6.118 11.204L4.858 6.956L4.857 6.948C4.701 6.381 4.555 5.85 4.337 5.454C4.128 5.069 3.96 5 3.809 5H3.25C3.05109 5 2.86032 4.92098 2.71967 4.78033C2.57902 4.63968 2.5 4.44891 2.5 4.25ZM7.573 10.84L8.324 13.579C8.474 14.121 8.967 14.498 9.53 14.498H15.478C15.7497 14.498 16.014 14.4095 16.2309 14.2458C16.4478 14.0821 16.6054 13.8523 16.68 13.591L18.417 7.5H6.585L7.559 10.787L7.573 10.84Z" fill="currentColor"></path><path d="M11 19C11 19.5304 10.7893 20.0391 10.4142 20.4142C10.0391 20.7893 9.53043 21 9 21C8.46957 21 7.96086 20.7893 7.58579 20.4142C7.21071 20.0391 7 19.5304 7 19C7 18.4696 7.21071 17.9609 7.58579 17.5858C7.96086 17.2107 8.46957 17 9 17C9.53043 17 10.0391 17.2107 10.4142 17.5858C10.7893 17.9609 11 18.4696 11 19ZM9.5 19C9.5 18.8674 9.44732 18.7402 9.35355 18.6464C9.25979 18.5527 9.13261 18.5 9 18.5C8.86739 18.5 8.74021 18.5527 8.64645 18.6464C8.55268 18.7402 8.5 18.8674 8.5 19C8.5 19.1326 8.55268 19.2598 8.64645 19.3536C8.74021 19.4473 8.86739 19.5 9 19.5C9.13261 19.5 9.25979 19.4473 9.35355 19.3536C9.44732 19.2598 9.5 19.1326 9.5 19Z" fill="currentColor"></path><path d="M18 19C18 19.5304 17.7893 20.0391 17.4142 20.4142C17.0391 20.7893 16.5304 21 16 21C15.4696 21 14.9609 20.7893 14.5858 20.4142C14.2107 20.0391 14 19.5304 14 19C14 18.4696 14.2107 17.9609 14.5858 17.5858C14.9609 17.2107 15.4696 17 16 17C16.5304 17 17.0391 17.2107 17.4142 17.5858C17.7893 17.9609 18 18.4696 18 19ZM16.5 19C16.5 18.8674 16.4473 18.7402 16.3536 18.6464C16.2598 18.5527 16.1326 18.5 16 18.5C15.8674 18.5 15.7402 18.5527 15.6464 18.6464C15.5527 18.7402 15.5 18.8674 15.5 19C15.5 19.1326 15.5527 19.2598 15.6464 19.3536C15.7402 19.4473 15.8674 19.5 16 19.5C16.1326 19.5 16.2598 19.4473 16.3536 19.3536C16.4473 19.2598 16.5 19.1326 16.5 19Z" fill="currentColor"></path></symbol><symbol id="icon-close" viewBox="0 0 25 25"><path d="M13.7898 12.5002L24.1042 2.18403C24.4604 1.82773 24.4604 1.24852 24.1042 0.892223C23.7479 0.535926 23.1688 0.535926 22.8126 0.892223L12.4982 11.2084L2.18376 0.892223C1.82753 0.535926 1.24841 0.535926 0.892177 0.892223C0.535941 1.24852 0.535941 1.82773 0.892177 2.18403L11.2066 12.5002L0.892177 22.8164C0.535941 23.1727 0.535941 23.7519 0.892177 24.1082C1.07121 24.2873 1.30505 24.375 1.53888 24.375C1.77272 24.375 2.00656 24.2855 2.18559 24.1082L12.5 13.792L22.8144 24.1082C22.9934 24.2873 23.2273 24.375 23.4611 24.375C23.695 24.375 23.9288 24.2855 24.1078 24.1082C24.4641 23.7519 24.4641 23.1727 24.1078 22.8164L13.7934 12.5002H13.7898Z" fill="currentColor"></path></symbol><symbol id="icon-heart" viewBox="0 0 16 16"><path d="M13.4401 3.07329C12.7323 2.3653 11.7939 1.93484 10.7956 1.86021C9.79726 1.78558 8.8053 2.07173 8.0001 2.66662C7.15187 2.03572 6.0961 1.74963 5.04538 1.86598C3.99467 1.98233 3.02706 2.49248 2.33742 3.29368C1.64777 4.09488 1.28732 5.12764 1.32864 6.18397C1.36996 7.2403 1.80998 8.24174 2.5601 8.98662L7.52677 13.9533C7.58874 14.0158 7.66248 14.0654 7.74372 14.0992C7.82496 14.1331 7.91209 14.1505 8.0001 14.1505C8.08811 14.1505 8.17525 14.1331 8.25649 14.0992C8.33773 14.0654 8.41146 14.0158 8.47344 13.9533L13.4401 8.98662C13.8285 8.59844 14.1367 8.13752 14.3469 7.6302C14.5571 7.12288 14.6654 6.57911 14.6654 6.02996C14.6654 5.4808 14.5571 4.93703 14.3469 4.42971C14.1367 3.92239 13.8285 3.46147 13.4401 3.07329ZM12.5001 8.04662L8.0001 12.54L3.5001 8.04662C3.10355 7.64842 2.83342 7.14199 2.72359 6.59085C2.61376 6.03971 2.66912 5.46841 2.88274 4.94862C3.09635 4.42883 3.4587 3.98369 3.92433 3.66904C4.38996 3.35439 4.93814 3.18425 5.5001 3.17996C6.25084 3.1818 6.97017 3.48151 7.5001 4.01329C7.56208 4.07578 7.63581 4.12537 7.71705 4.15922C7.79829 4.19306 7.88543 4.21049 7.97344 4.21049C8.06144 4.21049 8.14858 4.19306 8.22982 4.15922C8.31106 4.12537 8.38479 4.07578 8.44677 4.01329C8.99232 3.54055 9.6971 3.29272 10.4185 3.31997C11.1398 3.34723 11.8239 3.64752 12.3322 4.16008C12.8405 4.67264 13.1352 5.35918 13.1564 6.08075C13.1777 6.80232 12.924 7.50502 12.4468 8.04662H12.5001Z" fill="currentColor"></path></symbol><symbol id="icon-search-plus" viewBox="0 0 15 15"><path d="M9.37512 6.25H7.50012V4.375C7.50012 4.20924 7.43428 4.05027 7.31707 3.93306C7.19985 3.81585 7.04088 3.75 6.87512 3.75C6.70936 3.75 6.55039 3.81585 6.43318 3.93306C6.31597 4.05027 6.25012 4.20924 6.25012 4.375V6.25H4.37512C4.20936 6.25 4.05039 6.31585 3.93318 6.43306C3.81597 6.55027 3.75012 6.70924 3.75012 6.875C3.75012 7.04076 3.81597 7.19973 3.93318 7.31694C4.05039 7.43415 4.20936 7.5 4.37512 7.5H6.25012V9.375C6.25012 9.54076 6.31597 9.69973 6.43318 9.81694C6.55039 9.93415 6.70936 10 6.87512 10C7.04088 10 7.19985 9.93415 7.31707 9.81694C7.43428 9.69973 7.50012 9.54076 7.50012 9.375V7.5H9.37512C9.54088 7.5 9.69985 7.43415 9.81707 7.31694C9.93428 7.19973 10.0001 7.04076 10.0001 6.875C10.0001 6.70924 9.93428 6.55027 9.81707 6.43306C9.69985 6.31585 9.54088 6.25 9.37512 6.25ZM13.5689 12.6813L11.2501 10.3813C12.1502 9.25901 12.5861 7.83456 12.4681 6.40081C12.3502 4.96706 11.6874 3.63299 10.6161 2.6729C9.54473 1.71282 8.14625 1.1997 6.7082 1.23905C5.27015 1.2784 3.90182 1.86723 2.88459 2.88446C1.86735 3.9017 1.27852 5.27003 1.23917 6.70808C1.19982 8.14613 1.71294 9.54461 2.67303 10.616C3.63311 11.6873 4.96719 12.3501 6.40094 12.468C7.83468 12.5859 9.25913 12.1501 10.3814 11.25L12.6814 13.55C12.7395 13.6086 12.8086 13.6551 12.8848 13.6868C12.9609 13.7185 13.0426 13.7349 13.1251 13.7349C13.2076 13.7349 13.2893 13.7185 13.3655 13.6868C13.4416 13.6551 13.5108 13.6086 13.5689 13.55C13.6815 13.4335 13.7445 13.2777 13.7445 13.1156C13.7445 12.9535 13.6815 12.7978 13.5689 12.6813ZM6.87512 11.25C6.00983 11.25 5.16397 10.9934 4.4445 10.5127C3.72504 10.0319 3.16428 9.34867 2.83315 8.54924C2.50202 7.74981 2.41538 6.87015 2.58419 6.02148C2.753 5.17281 3.16968 4.39326 3.78153 3.78141C4.39339 3.16955 5.17294 2.75288 6.0216 2.58407C6.87027 2.41526 7.74994 2.50189 8.54936 2.83303C9.34879 3.16416 10.0321 3.72492 10.5128 4.44438C10.9935 5.16385 11.2501 6.00971 11.2501 6.875C11.2501 8.03532 10.7892 9.14812 9.96872 9.96859C9.14824 10.7891 8.03545 11.25 6.87512 11.25Z" fill="currentColor"></path><defs><linearGradient id="paint0_linear_257_2635" x1="1.23706" y1="1.23694" x2="13.735" y2="13.7444" gradientUnits="userSpaceOnUse"><stop stop-color="currentColor"></stop><stop offset="1" stop-color="currentColor"></stop></linearGradient></defs></symbol></svg>